# xmcd
#
# Track frame offsets: 
#        150
#        15113
#        28046
#        43595
#        60508
#        74635
#        85738
#        96274
#        109987
#        126660
#        137081
#        152054
#        160586
#        176304
#        191834
#
# Disc length: 2905 seconds
#
# Revision: 0
# Processed by: cddbd v1.5.2PL0 Copyright (c) Steve Scherf et al.
# Submitted via: ExactAudioCopy v0.99pb5
#
DISCID=c60b570f
DTITLE=Little Kim and The Alley Apple 3 - Riding the Rails
DYEAR=2010
DGENRE=Country
TTITLE0=It's too late
TTITLE1=Thingamajig
TTITLE2=Midnight Cowgirl
TTITLE3=Riding the Rails
TTITLE4=As I Slip Into Your Arms
TTITLE5=Ding Dong Momma
TTITLE6=The Alley Apple Stomp
TTITLE7=Who Walks in When I Walk Out
TTITLE8=Before the Storm
TTITLE9=Whoa Babe
TTITLE10=Don't you look Back Baby
TTITLE11=Ballad of the Old Oak Tree
TTITLE12=Lou Ella Brown
TTITLE13=Cornbread and Butterbeans
TTITLE14=When the Night Owl Sings
EXTD=
EXTT0=
EXTT1=
EXTT2=
EXTT3=
EXTT4=
EXTT5=
EXTT6=
EXTT7=
EXTT8=
EXTT9=
EXTT10=
EXTT11=
EXTT12=
EXTT13=
EXTT14=
PLAYORDER=
